<?xml version="1.0" ?><svg style="enable-background:new 0 0 512 512;" version="1.1" viewBox="0 0 512 512" xml:space="preserve" xmlns="http://www.w3.org/2000/svg" xmlns:xlink="http://www.w3.org/1999/xlink"><g id="_x34_0_x2C__news_x2C__report_x2C__virus"><g id="XMLID_8588_"><path d="M398.5,85v349.5c0,19.61-15.89,35.5-35.5,35.5H144c-19.61,0-35.5-15.89-35.5-35.5    V85c0-19.61,15.89-35.5,35.5-35.5h219C382.61,49.5,398.5,65.39,398.5,85z" id="XMLID_8804_" style="fill:#9BC9FF;"/><path d="M261.42,147.4c27.67,0,50.1,22.43,50.1,50.1c0,27.668-22.419,50.1-50.1,50.1    c-27.662,0-50.11-22.419-50.11-50.1C211.31,169.836,233.74,147.4,261.42,147.4z" id="XMLID_8798_" style="fill:#FFFFFF;"/><circle cx="448.5" cy="115" id="XMLID_2188_" r="30" style="fill:#FFFFFF;"/><path d="M58.5,360c11.05,0,20,8.95,20,20s-8.95,20-20,20s-20-8.95-20-20    S47.45,360,58.5,360z" id="XMLID_2187_" style="fill:#FFFFFF;"/><path d="M212.36,132.09c4.52,4.52,4.52,11.84,0,16.35c-4.51,4.52-11.84,4.52-16.35,0    c-4.52-4.51-4.52-11.83,0-16.35C200.52,127.58,207.85,127.58,212.36,132.09z" id="XMLID_2186_" style="fill:#FFFFFF;"/><path d="M272.98,170.52c6.39,0,11.56,5.18,11.56,11.56c0,6.39-5.17,11.57-11.56,11.57    c-6.39,0-11.56-5.18-11.56-11.57C261.42,175.7,266.59,170.52,272.98,170.52z" id="XMLID_2185_" style="fill:#FFFFFF;"/><path d="M249.85,209.06c4.26,0,7.71,3.45,7.71,7.71c0,4.26-3.45,7.71-7.71,7.71    c-4.25,0-7.7-3.45-7.7-7.71C242.15,212.51,245.6,209.06,249.85,209.06z" id="XMLID_2184_" style="fill:#FFFFFF;"/><path d="M169.27,182.08c8.71,0,15.76,7.06,15.76,15.77c0,8.71-7.05,15.77-15.76,15.77    c-8.71,0-15.77-7.06-15.77-15.77C153.5,189.14,160.56,182.08,169.27,182.08z" id="XMLID_2183_" style="fill:#FFFFFF;"/><path d="M261.42,80c6.38,0,11.56,5.18,11.56,11.56c0,6.39-5.18,11.56-11.56,11.56    c-6.39,0-11.57-5.17-11.57-11.56C249.85,85.18,255.03,80,261.42,80z" id="XMLID_2182_" style="fill:#FFFFFF;"/><path d="M342.35,185.94c6.39,0,11.57,5.17,11.57,11.56s-5.18,11.56-11.57,11.56    c-6.38,0-11.56-5.17-11.56-11.56S335.97,185.94,342.35,185.94z" id="XMLID_2181_" style="fill:#FFFFFF;"/><path d="M326.82,246.56c4.52,4.51,4.52,11.829,0,16.35c-4.51,4.51-11.83,4.51-16.35,0    c-4.51-4.521-4.51-11.84,0-16.35C314.99,242.04,322.31,242.04,326.82,246.56z" id="XMLID_2180_" style="fill:#FFFFFF;"/><path d="M348.9,119.48c7.13,7.13,7.13,18.68,0,25.81c-7.13,7.13-18.69,7.13-25.81,0    c-7.13-7.13-7.13-18.68,0-25.81C330.21,112.35,341.77,112.35,348.9,119.48z" id="XMLID_2179_" style="fill:#FFFFFF;"/><path d="M261.42,266.88c6.38,0,11.56,5.17,11.56,11.56c0,6.38-5.18,11.56-11.56,11.56    c-6.39,0-11.57-5.18-11.57-11.56C249.85,272.05,255.03,266.88,261.42,266.88z" id="XMLID_2178_" style="fill:#FFFFFF;"/><path d="M212.36,246.56c4.52,4.51,4.52,11.829,0,16.35c-4.51,4.51-11.84,4.51-16.35,0    c-4.52-4.521-4.52-11.84,0-16.35C200.52,242.04,207.85,242.04,212.36,246.56z" id="XMLID_2177_" style="fill:#FFFFFF;"/><circle cx="448.5" cy="217.5" id="XMLID_2176_" r="7.5" style="fill:#1E81CE;"/><circle cx="441" cy="447.5" id="XMLID_2175_" r="7.5" style="fill:#1E81CE;"/><circle cx="426" cy="297.5" id="XMLID_2174_" r="7.5" style="fill:#1E81CE;"/><circle cx="81" cy="177.5" id="XMLID_2173_" r="7.5" style="fill:#1E81CE;"/><circle cx="76" cy="457.5" id="XMLID_2172_" r="7.5" style="fill:#1E81CE;"/><circle cx="46" cy="312.5" id="XMLID_2171_" r="7.5" style="fill:#1E81CE;"/><circle cx="36" cy="72.5" id="XMLID_2170_" r="7.5" style="fill:#1E81CE;"/><path d="M363,475H144c-22.332,0-40.5-18.168-40.5-40.5V85c0-22.332,18.168-40.5,40.5-40.5    h219c22.332,0,40.5,18.168,40.5,40.5v349.5C403.5,456.832,385.332,475,363,475z M144,54.5c-16.818,0-30.5,13.682-30.5,30.5v349.5    c0,16.817,13.682,30.5,30.5,30.5h219c16.818,0,30.5-13.683,30.5-30.5V85c0-16.818-13.682-30.5-30.5-30.5H144z" id="XMLID_8733_" style="fill:#1E81CE;"/><path d="M353.5,430h-200c-2.761,0-5-2.238-5-5V255c0-2.761,2.239-5,5-5s5,2.239,5,5v165    h190v-95c0-2.762,2.239-5,5-5s5,2.238,5,5v100C358.5,427.762,356.261,430,353.5,430z" id="XMLID_2167_" style="fill:#1E81CE;"/><path d="M318.5,395h-130c-2.761,0-5-2.238-5-5s2.239-5,5-5h130c2.761,0,5,2.238,5,5    S321.261,395,318.5,395z" id="XMLID_2166_" style="fill:#1E81CE;"/><path d="M318.5,370h-130c-2.761,0-5-2.238-5-5s2.239-5,5-5h130c2.761,0,5,2.238,5,5    S321.261,370,318.5,370z" id="XMLID_2165_" style="fill:#1E81CE;"/><path d="M318.5,345h-130c-2.761,0-5-2.238-5-5s2.239-5,5-5h130c2.761,0,5,2.238,5,5    S321.261,345,318.5,345z" id="XMLID_2164_" style="fill:#1E81CE;"/><path d="M261.42,252.6c-14.711,0-28.549-5.729-38.963-16.132    c-10.413-10.413-16.146-24.252-16.146-38.968s5.733-28.555,16.145-38.966c10.416-10.405,24.254-16.134,38.965-16.134    c30.382,0,55.1,24.718,55.1,55.1c0,14.711-5.729,28.549-16.132,38.964C289.969,246.871,276.131,252.6,261.42,252.6z M261.42,152.4    c-12.042,0-23.37,4.69-31.896,13.208c-8.52,8.52-13.214,19.847-13.214,31.893s4.693,23.373,13.216,31.895    c8.524,8.515,19.852,13.206,31.894,13.206c12.043,0,23.37-4.69,31.897-13.208c8.513-8.522,13.204-19.85,13.204-31.893    C306.52,172.632,286.288,152.4,261.42,152.4z" id="XMLID_8713_" style="fill:#1E81CE;"/><path d="M261.42,108.12c-9.137,0-16.57-7.429-16.57-16.56    c0-9.131,7.433-16.56,16.57-16.56c9.131,0,16.56,7.429,16.56,16.56C277.98,100.691,270.551,108.12,261.42,108.12z M261.42,85    c-3.622,0-6.57,2.943-6.57,6.56c0,3.617,2.947,6.56,6.57,6.56c3.617,0,6.56-2.943,6.56-6.56C267.98,87.943,265.037,85,261.42,85z" id="XMLID_8705_" style="fill:#1E81CE;"/><path d="M261.42,295c-9.137,0-16.57-7.429-16.57-16.56c0-9.132,7.433-16.56,16.57-16.56    c9.131,0,16.56,7.429,16.56,16.56C277.98,287.571,270.551,295,261.42,295z M261.42,271.88c-3.622,0-6.57,2.943-6.57,6.56    s2.947,6.56,6.57,6.56c3.617,0,6.56-2.942,6.56-6.56S265.037,271.88,261.42,271.88z" id="XMLID_8697_" style="fill:#1E81CE;"/><path d="M261.42,271.88c-2.761,0-5-2.238-5-5V247.6c0-2.761,2.239-5,5-5    c2.761,0,5,2.239,5,5v19.28C266.42,269.642,264.181,271.88,261.42,271.88z" id="XMLID_2157_" style="fill:#1E81CE;"/><path d="M261.42,152.4c-2.761,0-5-2.239-5-5v-44.28c0-2.761,2.239-5,5-5    c2.761,0,5,2.239,5,5v44.28C266.42,150.161,264.181,152.4,261.42,152.4z" id="XMLID_2156_" style="fill:#1E81CE;"/><path d="M335.991,155.638c-6.213,0-12.051-2.42-16.439-6.814    c-4.39-4.391-6.81-10.229-6.81-16.438c0-6.209,2.419-12.048,6.812-16.44c4.386-4.392,10.224-6.812,16.437-6.812    c6.211,0,12.052,2.42,16.444,6.812c4.393,4.393,6.812,10.231,6.812,16.44c0,6.209-2.419,12.048-6.812,16.441    C348.043,153.218,342.203,155.638,335.991,155.638z M335.991,119.132c-3.539,0-6.864,1.378-9.363,3.881    c-2.506,2.506-3.886,5.834-3.886,9.372c0,3.538,1.379,6.866,3.883,9.37c2.502,2.505,5.827,3.883,9.366,3.883    c3.54,0,6.869-1.379,9.373-3.883c2.504-2.504,3.883-5.831,3.883-9.37c0-3.538-1.379-6.865-3.883-9.369    C342.86,120.512,339.532,119.132,335.991,119.132z" id="XMLID_8683_" style="fill:#1E81CE;"/><path d="M204.185,271.292c-4.426,0-8.585-1.721-11.711-4.846    c-3.131-3.132-4.854-7.292-4.854-11.715c0-4.425,1.725-8.585,4.858-11.711c3.119-3.125,7.279-4.851,11.707-4.851    c4.428,0,8.588,1.726,11.714,4.858c3.123,3.116,4.848,7.271,4.851,11.693c0.002,4.427-1.722,8.591-4.855,11.724    C212.77,269.571,208.611,271.292,204.185,271.292z M204.185,248.17c-1.753,0-3.4,0.683-4.636,1.922    c-1.247,1.244-1.929,2.889-1.929,4.639c0,1.753,0.684,3.402,1.926,4.644c1.236,1.236,2.884,1.917,4.639,1.917    c1.755,0,3.402-0.681,4.639-1.917c1.243-1.243,1.927-2.894,1.926-4.648c-0.001-1.749-0.684-3.392-1.922-4.628    C207.584,248.852,205.938,248.17,204.185,248.17z" id="XMLID_8675_" style="fill:#1E81CE;"/><path d="M212.36,251.56c-1.28,0-2.559-0.488-3.536-1.464    c-1.953-1.953-1.953-5.119,0-7.071l13.63-13.63c1.954-1.952,5.119-1.951,7.071,0c1.953,1.953,1.953,5.119,0,7.071l-13.63,13.63    C214.919,251.072,213.639,251.56,212.36,251.56z" id="XMLID_2151_" style="fill:#1E81CE;"/><path d="M301.58,171.8c-1.28,0-2.559-0.488-3.536-1.464c-1.953-1.953-1.953-5.119,0-7.071    l21.51-21.51c1.953-1.952,5.118-1.952,7.071,0c1.953,1.953,1.953,5.119,0,7.071l-21.51,21.51    C304.139,171.311,302.86,171.8,301.58,171.8z" id="XMLID_2150_" style="fill:#1E81CE;"/><path d="M342.35,214.06c-9.131,0-16.56-7.429-16.56-16.56s7.429-16.56,16.56-16.56    c9.137,0,16.57,7.429,16.57,16.56S351.487,214.06,342.35,214.06z M342.35,190.94c-3.617,0-6.56,2.943-6.56,6.56    s2.943,6.56,6.56,6.56c3.623,0,6.57-2.943,6.57-6.56S345.973,190.94,342.35,190.94z" id="XMLID_8661_" style="fill:#1E81CE;"/><path d="M169.27,218.62c-11.453,0-20.77-9.317-20.77-20.77    c0-11.453,9.317-20.77,20.77-20.77c11.447,0,20.76,9.317,20.76,20.77C190.03,209.303,180.717,218.62,169.27,218.62z     M169.27,187.08c-5.939,0-10.77,4.832-10.77,10.77c0,5.939,4.831,10.77,10.77,10.77c5.933,0,10.76-4.831,10.76-10.77    C180.03,191.912,175.203,187.08,169.27,187.08z" id="XMLID_8653_" style="fill:#1E81CE;"/><path d="M211.31,202.85h-26.28c-2.761,0-5-2.239-5-5s2.239-5,5-5h26.28    c2.761,0,5,2.239,5,5S214.071,202.85,211.31,202.85z" id="XMLID_2145_" style="fill:#1E81CE;"/><path d="M330.79,202.5h-19.27c-2.761,0-5-2.239-5-5s2.239-5,5-5h19.27    c2.761,0,5,2.239,5,5S333.551,202.5,330.79,202.5z" id="XMLID_2144_" style="fill:#1E81CE;"/><path d="M204.185,156.83c-4.428,0-8.588-1.726-11.715-4.858    c-3.122-3.116-4.848-7.271-4.85-11.693c-0.002-4.427,1.721-8.591,4.854-11.724c3.126-3.126,7.285-4.847,11.711-4.847    c4.426,0,8.585,1.721,11.71,4.847c3.133,3.133,4.857,7.297,4.855,11.724c-0.002,4.422-1.728,8.578-4.858,11.701    C212.773,155.105,208.613,156.83,204.185,156.83z M204.185,133.708c-1.755,0-3.403,0.681-4.64,1.918    c-1.242,1.243-1.926,2.893-1.925,4.647c0.001,1.749,0.683,3.392,1.921,4.628c1.244,1.247,2.891,1.93,4.644,1.93    c1.753,0,3.399-0.683,4.635-1.922c1.246-1.243,1.929-2.887,1.93-4.636c0.001-1.754-0.683-3.404-1.926-4.647    C207.587,134.389,205.94,133.708,204.185,133.708z" id="XMLID_8639_" style="fill:#1E81CE;"/><path d="M318.649,271.292c-4.421,0-8.58-1.72-11.71-4.843    c-6.456-6.471-6.454-16.975-0.003-23.425c3.13-3.13,7.29-4.854,11.714-4.854c4.426,0,8.585,1.726,11.711,4.858    c3.122,3.116,4.848,7.271,4.851,11.693c0.002,4.427-1.722,8.591-4.854,11.724C327.23,269.571,323.072,271.292,318.649,271.292z     M318.649,248.17c-1.752,0-3.401,0.684-4.643,1.926c-2.556,2.555-2.554,6.719,0.004,9.283c1.234,1.232,2.884,1.913,4.639,1.913    c1.753,0,3.398-0.681,4.635-1.917c1.243-1.243,1.927-2.894,1.926-4.648c-0.001-1.749-0.684-3.392-1.922-4.628    C322.044,248.852,320.399,248.17,318.649,248.17z" id="XMLID_8631_" style="fill:#1E81CE;"/><path d="M310.47,251.56c-1.28,0-2.561-0.489-3.537-1.466l-13.62-13.63    c-1.952-1.953-1.951-5.119,0.002-7.071c1.953-1.953,5.119-1.951,7.071,0.002l13.62,13.63c1.952,1.953,1.951,5.119-0.002,7.071    C313.028,251.072,311.749,251.56,310.47,251.56z" id="XMLID_2139_" style="fill:#1E81CE;"/><path d="M225.99,167.07c-1.28,0-2.559-0.488-3.536-1.464l-13.63-13.63    c-1.953-1.953-1.953-5.119,0-7.071c1.953-1.952,5.118-1.952,7.071,0l13.63,13.63c1.953,1.953,1.953,5.119,0,7.071    C228.549,166.581,227.27,167.07,225.99,167.07z" id="XMLID_2138_" style="fill:#1E81CE;"/><path d="M272.98,198.65c-9.131,0-16.56-7.433-16.56-16.57    c0-9.131,7.429-16.56,16.56-16.56c9.131,0,16.56,7.429,16.56,16.56C289.54,191.217,282.111,198.65,272.98,198.65z M272.98,175.52    c-3.617,0-6.56,2.943-6.56,6.56c0,3.623,2.943,6.57,6.56,6.57c3.617,0,6.56-2.947,6.56-6.57    C279.54,178.463,276.597,175.52,272.98,175.52z" id="XMLID_8617_" style="fill:#1E81CE;"/><path d="M249.85,229.48c-7.003,0-12.7-5.702-12.7-12.71s5.697-12.71,12.7-12.71    c7.008,0,12.71,5.702,12.71,12.71S256.858,229.48,249.85,229.48z M249.85,214.06c-1.489,0-2.7,1.216-2.7,2.71    c0,1.494,1.211,2.71,2.7,2.71c1.494,0,2.71-1.216,2.71-2.71C252.56,215.276,251.344,214.06,249.85,214.06z" id="XMLID_8609_" style="fill:#1E81CE;"/><path d="M448.5,150c-19.299,0-35-15.701-35-35s15.701-35,35-35s35,15.701,35,35    S467.799,150,448.5,150z M448.5,90c-13.785,0-25,11.215-25,25s11.215,25,25,25s25-11.215,25-25S462.285,90,448.5,90z" id="XMLID_8601_" style="fill:#1E81CE;"/><path d="M58.5,405c-13.785,0-25-11.215-25-25s11.215-25,25-25s25,11.215,25,25    S72.285,405,58.5,405z M58.5,365c-8.271,0-15,6.728-15,15s6.729,15,15,15s15-6.728,15-15S66.771,365,58.5,365z" id="XMLID_8590_" style="fill:#1E81CE;"/></g></g><g id="Layer_1"/></svg>